<?xml version="1.0" encoding="utf-8"?>
<!-- Generator: Adobe Illustrator 26.2.1, SVG Export Plug-In . SVG Version: 6.00 Build 0)  -->
<svg version="1.1" id="Layer_1" xmlns="http://www.w3.org/2000/svg" xmlns:xlink="http://www.w3.org/1999/xlink" x="0px" y="0px"
	 viewBox="0 0 136.5 168.1" style="enable-background:new 0 0 136.5 168.1;" xml:space="preserve">
<style type="text/css">
	.st0{opacity:0.3;fill:#39033D;}
	.st1{fill:none;}
	.st2{fill:url(#SVGID_1_);}
	.st3{fill:url(#SVGID_00000000935975167764999410000009202225556454755994_);}
	.st4{fill:#00FFFF;}
</style>
<g>
	<path class="st4" d="M19.6,149.6c11.5,0,19.6-18.1,19.6-28c0-10.8-8.8-19.6-19.6-19.6S0,110.8,0,121.6
		C0,131.4,8.1,149.6,19.6,149.6z M19.6,106.2c8.5,0,15.4,6.9,15.4,15.4c0,8.9-7.5,23.8-15.4,23.8S4.2,130.5,4.2,121.6
		C4.2,113.1,11.1,106.2,19.6,106.2z"/>
	<path class="st4" d="M17.7,126.4c0.9-0.7,1.1-2,0.4-2.9c-0.7-0.9-2-1.1-2.9-0.4c-1.5,1.1-4.2-0.2-4.2-0.2c-1-0.5-2.3-0.1-2.8,0.9
		c-0.5,1-0.1,2.3,0.9,2.8c0.1,0.1,2.2,1.1,4.6,1.1C15,127.7,16.4,127.4,17.7,126.4z"/>
	<path class="st4" d="M14.6,134.4c-0.5,1-0.1,2.3,0.9,2.8c0.1,0.1,2.2,1.1,4.6,1.1c1.3,0,2.8-0.3,4.1-1.3c0.9-0.7,1.1-2,0.4-2.9
		c-0.7-0.9-2-1.1-2.9-0.4c-1.5,1.1-4.2-0.2-4.2-0.2C16.4,133,15.1,133.4,14.6,134.4z"/>
	<path class="st4" d="M21.9,126.6c0.1,0.1,2.2,1.1,4.6,1.1c1.3,0,2.8-0.3,4.1-1.3c0.9-0.7,1.1-2,0.4-2.9c-0.7-0.9-2-1.1-2.9-0.4
		c-1.5,1.1-4.2-0.2-4.2-0.2c-1-0.5-2.3-0.1-2.8,0.9C20.5,124.8,20.9,126.1,21.9,126.6z"/>
	<path class="st4" d="M48.8,140.2c0,9.8,8.1,28,19.6,28c11.5,0,19.6-18.1,19.6-28c0-10.8-8.8-19.6-19.6-19.6S48.8,129.3,48.8,140.2z
		 M83.8,140.2c0,8.9-7.5,23.8-15.4,23.8S53,149.1,53,140.2c0-8.5,6.9-15.4,15.4-15.4C76.9,124.7,83.8,131.7,83.8,140.2z"/>
	<path class="st4" d="M66.9,142c-0.7-0.9-2-1.1-2.9-0.4c-1.5,1.1-4.2-0.2-4.2-0.2c-1-0.5-2.3-0.1-2.8,0.9c-0.5,1-0.1,2.3,0.9,2.8
		c0.1,0.1,2.2,1.1,4.6,1.1c1.3,0,2.8-0.3,4.1-1.3C67.4,144.3,67.6,142.9,66.9,142z"/>
	<path class="st4" d="M63.4,153c-0.5,1-0.1,2.3,0.9,2.8c0.1,0.1,2.2,1.1,4.6,1.1c1.3,0,2.8-0.3,4.1-1.3c0.9-0.7,1.1-2,0.4-2.9
		c-0.7-0.9-2-1.1-2.9-0.4c-1.5,1.1-4.2-0.2-4.2-0.2C65.2,151.5,63.9,151.9,63.4,153z"/>
	<path class="st4" d="M70.7,145.2c0.1,0.1,2.2,1.1,4.6,1.1c1.3,0,2.8-0.3,4.1-1.3c0.9-0.7,1.1-2,0.4-2.9c-0.7-0.9-2-1.1-2.9-0.4
		c-1.5,1.1-4.2-0.2-4.2-0.2c-1-0.5-2.3-0.1-2.8,0.9C69.3,143.4,69.7,144.6,70.7,145.2z"/>
	<path class="st4" d="M97.3,121.6c0,9.8,8.1,28,19.6,28c11.5,0,19.6-18.1,19.6-28c0-10.8-8.8-19.6-19.6-19.6S97.3,110.8,97.3,121.6z
		 M116.9,106.2c8.5,0,15.4,6.9,15.4,15.4c0,8.9-7.5,23.8-15.4,23.8s-15.4-14.8-15.4-23.8C101.5,113.1,108.4,106.2,116.9,106.2z"/>
	<path class="st4" d="M106.3,126.6c0.1,0.1,2.2,1.1,4.6,1.1c1.3,0,2.8-0.3,4.1-1.3c0.9-0.7,1.1-2,0.4-2.9c-0.7-0.9-2-1.1-2.9-0.4
		c-1.5,1.1-4.2-0.2-4.2-0.2c-1-0.5-2.3-0.1-2.8,0.9C104.9,124.8,105.3,126.1,106.3,126.6z"/>
	<path class="st4" d="M111.9,134.4c-0.5,1-0.1,2.3,0.9,2.8c0.1,0.1,2.2,1.1,4.6,1.1c1.3,0,2.8-0.3,4.1-1.3c0.9-0.7,1.1-2,0.4-2.9
		c-0.7-0.9-2-1.1-2.9-0.4c-1.5,1.1-4.2-0.2-4.2-0.2C113.6,133,112.4,133.4,111.9,134.4z"/>
	<path class="st4" d="M119.2,126.6c0.1,0.1,2.2,1.1,4.6,1.1c1.3,0,2.8-0.3,4.1-1.3c0.9-0.7,1.1-2,0.4-2.9c-0.7-0.9-2-1.1-2.9-0.4
		c-1.5,1.1-4.2-0.2-4.2-0.2c-1-0.5-2.3-0.1-2.8,0.9C117.8,124.8,118.2,126.1,119.2,126.6z"/>
	<path class="st4" d="M37.7,103.3c4.1,0,7.5-3.4,7.5-7.5c0-0.8-0.1-1.6-0.4-2.4l20.9-12.9v18.9c-3.1,0.9-5.3,3.8-5.3,7.2
		c0,4.1,3.4,7.5,7.5,7.5s7.5-3.4,7.5-7.5c0-3.4-2.3-6.3-5.4-7.2V80.6l20.7,12.8c-0.3,0.8-0.4,1.6-0.4,2.4c0,4.1,3.4,7.5,7.5,7.5
		c4.1,0,7.5-3.4,7.5-7.5c0-4.1-3.4-7.5-7.5-7.5c-1.8,0-3.4,0.6-4.7,1.6L69,75c-0.3-0.2-0.5-0.3-0.8-0.3c-0.5-0.1-1,0-1.5,0.3
		L42.4,90c-1.3-1.1-2.9-1.7-4.7-1.7c-4.1,0-7.5,3.4-7.5,7.5C30.2,100,33.6,103.3,37.7,103.3z M101.1,95.8c0,1.8-1.5,3.3-3.3,3.3
		c-1.8,0-3.3-1.5-3.3-3.3c0-1.8,1.5-3.3,3.3-3.3C99.6,92.5,101.1,94,101.1,95.8z M71.2,106.6c0,1.8-1.5,3.3-3.3,3.3
		c-1.8,0-3.3-1.5-3.3-3.3s1.5-3.3,3.3-3.3C69.7,103.3,71.2,104.8,71.2,106.6z M37.7,92.5c1.8,0,3.3,1.5,3.3,3.3
		c0,1.8-1.5,3.3-3.3,3.3c-1.8,0-3.3-1.5-3.3-3.3C34.4,94,35.9,92.5,37.7,92.5z"/>
	<path class="st4" d="M56.8,48.1c1.5,1.4,2.3,3.4,2.3,5.4v5.9c0,1.1,0.9,2,2,2.1v6.8c0,1.2,0.9,2.1,2.1,2.1h9.4
		c1.2,0,2.1-0.9,2.1-2.1v-6.8c1.1-0.1,2-1,2-2.1v-5.6c0-2,0.8-3.8,2.3-5.1c3.2-2.8,4.9-6.6,4.9-10.7c0-3.9-1.6-7.6-4.5-10.3
		c-3.2-3-7.6-4.6-12.1-4.3c-7.9,0.5-14.2,6.4-14.6,13.8C52.3,41.3,53.9,45.1,56.8,48.1z M65.3,66.2v-4.7h5.2v4.7H65.3z M56.8,37.4
		c0.3-5.2,5-9.6,10.7-9.9c3.4-0.2,6.6,1,9,3.2c2.1,2,3.2,4.6,3.2,7.3c0,2.9-1.2,5.5-3.5,7.5c-2.4,2.1-3.7,5.1-3.7,8.3v2.8h-9.1v-3.1
		c0-3.2-1.2-6.1-3.5-8.4C57.7,43,56.6,40.3,56.8,37.4z"/>
	<path class="st4" d="M69.9,40.8c1.1-0.8,1.9-0.2,2.4,0.4l3.2-2.7c-1.5-1.8-4.9-3.6-8.2-1.1c-1.1,0.8-1.9,0.4-2.4-0.1l-1.5,1.4
		l-1.5,1.4c0.9,1,2.5,1.9,4.3,1.9C67.4,42.1,68.6,41.7,69.9,40.8z"/>
	<rect x="44.9" y="6.9" transform="matrix(0.7071 -0.7071 0.7071 0.7071 3.3685 37.562)" class="st4" width="4.2" height="15.6"/>
	<rect x="30.7" y="34.3" class="st4" width="16.1" height="4.2"/>
	<rect x="82.2" y="13.2" transform="matrix(0.7072 -0.707 0.707 0.7072 15.5033 68.1145)" class="st4" width="15.6" height="4.2"/>
	<rect x="90.1" y="34.3" class="st4" width="16.1" height="4.2"/>
	<rect x="66.2" class="st4" width="4.2" height="16.1"/>
</g>
</svg>
