<?xml version="1.0" encoding="utf-8"?>
<!-- Generator: Adobe Illustrator 26.2.1, SVG Export Plug-In . SVG Version: 6.00 Build 0)  -->
<svg version="1.1" id="Layer_1" xmlns="http://www.w3.org/2000/svg" xmlns:xlink="http://www.w3.org/1999/xlink" x="0px" y="0px"
	 viewBox="0 0 110.5 122.9" style="enable-background:new 0 0 110.5 122.9;" xml:space="preserve">
<style type="text/css">
	.st0{opacity:0.3;fill:#39033D;}
	.st1{fill:none;}
	.st2{fill:url(#SVGID_1_);}
	.st3{fill:url(#SVGID_00000075141416397780726890000017202544233882577536_);}
	.st4{fill:#00FFFF;}
</style>
<g>
	<path class="st4" d="M21.6,51.9v24.8h-1.3c-0.6,0-1.1,0.2-1.5,0.6c-0.4,0.4-0.6,0.9-0.6,1.5l0.1,42.1c0,0.6,0.2,1.1,0.6,1.5
		c0.4,0.4,0.9,0.6,1.5,0.6c0,0,0,0,0,0l13.4-0.1c1.2,0,2.1-0.9,2.1-2.1V78.5c0-1.2-0.9-2.1-2.1-2.1h-1.8V51.6
		c4.8-1.1,9.2-3.5,12.7-7c4.9-4.9,7.7-11.5,7.7-18.5s-2.7-13.5-7.7-18.5c0,0,0,0,0,0C39.7,2.7,33.1,0,26.1,0S12.6,2.7,7.7,7.7
		S0,19.2,0,26.1s2.7,13.5,7.7,18.5C11.5,48.5,16.3,51,21.6,51.9z M31.6,118.7l-9.2,0l0-37.9h1.3c1.2,0,2.1-0.9,2.1-2.1V52.5h1.9v26
		c0,1.2,0.9,2.1,2.1,2.1h1.8V118.7z M10.6,10.6c4.1-4.1,9.7-6.4,15.5-6.4c5.9,0,11.4,2.3,15.5,6.4v0c4.1,4.1,6.4,9.7,6.4,15.5
		s-2.3,11.4-6.4,15.5c-4.1,4.1-9.7,6.4-15.5,6.4c-5.9,0-11.4-2.3-15.5-6.4C6.5,37.5,4.2,32,4.2,26.1S6.5,14.8,10.6,10.6z"/>
	<path class="st4" d="M82.9,48.1c3.3,0,6.1-1.2,8.3-3.5c6.7-7,6.3-22.1,6.3-22.8c0-1.1-1-2-2.1-2H70.9c-1.2,0-2.1,0.9-2.1,2.1
		c0,11,2.2,18.8,6.5,23c3,2.9,6,3.3,7.4,3.3C82.8,48.1,82.8,48.1,82.9,48.1z M78.3,41.9c-2.3-2.2-4.9-7.1-5.2-17.9h20.2
		c-0.1,4.1-0.9,13.3-5.1,17.7c-1.5,1.5-3.2,2.3-5.3,2.3c0,0-0.1,0-0.1,0C82.2,43.9,80.3,43.8,78.3,41.9z"/>
	<path class="st4" d="M97.8,102.9L84.9,90.3c-0.8-0.8-2.1-0.8-2.9,0l-13.1,12.5c-0.6,0.6-0.8,1.5-0.5,2.3c0.3,0.8,1.1,1.3,1.9,1.3
		h26c0.9,0,1.6-0.5,1.9-1.3C98.6,104.4,98.4,103.5,97.8,102.9z M75.5,102.3l7.9-7.5l7.8,7.5H75.5z"/>
	<path class="st4" d="M57.1,122.6h51.3c1.2,0,2.1-0.9,2.1-2.1v-7.6c0-1.2-0.9-2.1-2.1-2.1h-2.5V93.3c0-0.1,0-0.2,0-0.3
		c-0.1-0.4-1.5-10-8.7-17.3c-6-6-5-14.5-5-14.5l0,0c0.3-3,1.5-7.2,4.9-10.7c7.3-7.3,8.7-16.9,8.7-17.3c0-0.1,0-0.2,0-0.3V15.4h2.5
		c1.2,0,2.1-0.9,2.1-2.1V5.7c0-1.2-0.9-2.1-2.1-2.1H57.1c-1.2,0-2.1,0.9-2.1,2.1v7.6c0,1.2,0.9,2.1,2.1,2.1h3.4v17.4
		c0,0.1,0,0.2,0,0.3c0.1,0.4,1.5,10,8.7,17.3c3.7,3.7,4.7,8.4,5,11.4c0.1,2.2,0,8.8-5,13.8c-7.3,7.3-8.7,16.9-8.7,17.3
		c0,0.1,0,0.2,0,0.3v17.5h-3.4c-1.2,0-2.1,0.9-2.1,2.1v7.6C55,121.6,55.9,122.6,57.1,122.6z M59.2,7.8h47.1v3.4H59.2V7.8z
		 M64.6,93.4c0.2-1.1,1.7-9,7.5-14.8c4.3-4.3,5.7-9.4,6.1-13.1l0.1,0c0-0.2,0.3-2,0-4.7c0-0.1,0-0.1,0-0.2
		c-0.4-3.7-1.8-8.9-6.1-13.2c-5.8-5.8-7.4-13.7-7.5-14.8v-17h37v17c-0.2,1.1-1.7,9-7.5,14.8C86.6,55,87.9,65.1,88,65.6l0.1,0
		c0.4,3.7,1.9,8.8,6.1,13.1c5.8,5.8,7.4,13.7,7.5,14.8v17H64.6V93.4z M59.2,115h47.1v3.4H59.2V115z"/>
	<path class="st4" d="M12,28c1,0,1.9-0.7,2.1-1.7c0.1-0.4,2.2-10.7,12-10.7c1.2,0,2.1-0.9,2.1-2.1s-0.9-2.1-2.1-2.1
		c-10.7,0-15.2,9.2-16.1,14.1c-0.2,1.1,0.5,2.2,1.7,2.4C11.8,28,11.9,28,12,28z"/>
</g>
</svg>
