<?xml version="1.0" encoding="utf-8"?>
<!-- Generator: Adobe Illustrator 26.2.1, SVG Export Plug-In . SVG Version: 6.00 Build 0)  -->
<svg version="1.1" id="Layer_1" xmlns="http://www.w3.org/2000/svg" xmlns:xlink="http://www.w3.org/1999/xlink" x="0px" y="0px"
	 viewBox="0 0 144.8 107.3" style="enable-background:new 0 0 144.8 107.3;" xml:space="preserve">
<style type="text/css">
	.st0{opacity:0.3;fill:#39033D;}
	.st1{fill:none;}
	.st2{fill:url(#SVGID_1_);}
	.st3{fill:url(#SVGID_00000170981062376884455450000014296499582474074500_);}
	.st4{fill:#00FFFF;}
</style>
<g>
	<path class="st4" d="M134,52.3h-19.1V8.1h-2.7v0H32.5c-1-4.6-5.1-8.1-10-8.1c-5.6,0-10.2,4.6-10.2,10.2s4.6,10.2,10.2,10.2
		c4.9,0,9-3.5,10-8.1h78.3v40H20.2c-1-4.6-5.1-8.1-10-8.1C4.6,44.2,0,48.8,0,54.4s4.6,10.2,10.2,10.2c4.9,0,9-3.5,10-8.1h66v38.2
		H54.3c-1.1-4.5-5.1-7.8-9.9-7.8c-5.6,0-10.2,4.6-10.2,10.2s4.6,10.2,10.2,10.2c5,0,9.2-3.6,10-8.4h33.9v0h2.1V56.5H134v8.7
		l10.8-10.8L134,43.6V52.3z M22.5,16.2c-3.3,0-6-2.7-6-6s2.7-6,6-6s6,2.7,6,6S25.8,16.2,22.5,16.2z M44.4,103.1c-3.3,0-6-2.7-6-6
		c0-3.3,2.7-6,6-6c3.3,0,6,2.7,6,6C50.4,100.5,47.7,103.1,44.4,103.1z M10.2,60.4c-3.3,0-6-2.7-6-6s2.7-6,6-6s6,2.7,6,6
		S13.5,60.4,10.2,60.4z"/>
</g>
</svg>
