<?xml version="1.0" encoding="utf-8"?>
<!-- Generator: Adobe Illustrator 26.2.1, SVG Export Plug-In . SVG Version: 6.00 Build 0)  -->
<svg version="1.1" id="Layer_1" xmlns="http://www.w3.org/2000/svg" xmlns:xlink="http://www.w3.org/1999/xlink" x="0px" y="0px"
	 viewBox="0 0 151.1 117.3" style="enable-background:new 0 0 151.1 117.3;" xml:space="preserve">
<style type="text/css">
	.st0{opacity:0.3;fill:#39033D;}
	.st1{fill:none;}
	.st2{fill:url(#SVGID_1_);}
	.st3{fill:url(#SVGID_00000164494013738311360790000001950007522078536582_);}
	.st4{fill:#00FFFF;}
</style>
<g>
	<path class="st4" d="M75.6,0L0,45.3h19.2v72h113v-72h18.9L75.6,0z M75.6,4.9L136,41.1h-4.3L75.7,8.5L19.8,41.1h-4.7L75.6,4.9z
		 M128,113.1H23.4V43.9l52.3-30.5L128,43.9V113.1z"/>
	<path class="st4" d="M75.5,90.9c-10.4,0-18.9-8.5-18.9-18.9c0-4.1,1.3-8,3.8-11.3l0.4-0.6V45.1l-3.3,2.4C49.7,53.2,45,62.4,45,72
		c0,16.8,13.6,30.4,30.4,30.4s30.4-13.6,30.4-30.4c0-9.8-4.8-19-12.7-24.7l-3.3-2.4v14.7l0.5,0.6c2.7,3.4,4.1,7.4,4.1,11.8
		C94.3,82.4,85.9,90.9,75.5,90.9z M98.5,72c0-5-1.6-9.8-4.6-13.8v-4.7c4.9,4.9,7.7,11.5,7.7,18.5c0,14.5-11.8,26.2-26.2,26.2
		S49.2,86.5,49.2,72c0-6.8,2.7-13.4,7.4-18.2v5c-2.7,3.9-4.2,8.4-4.2,13.2c0,12.7,10.3,23.1,23.1,23.1S98.5,84.7,98.5,72z"/>
	<path class="st4" d="M69.4,70.7h12.1V39H69.4V70.7z M73.6,43.2h3.7v23.3h-3.7V43.2z"/>
</g>
</svg>
