<?xml version="1.0" encoding="utf-8"?>
<!-- Generator: Adobe Illustrator 26.2.1, SVG Export Plug-In . SVG Version: 6.00 Build 0)  -->
<svg version="1.1" id="Layer_1" xmlns="http://www.w3.org/2000/svg" xmlns:xlink="http://www.w3.org/1999/xlink" x="0px" y="0px"
	 viewBox="0 0 140.9 128.3" style="enable-background:new 0 0 140.9 128.3;" xml:space="preserve">
<style type="text/css">
	.st0{opacity:0.3;fill:#39033D;}
	.st1{fill:none;}
	.st2{fill:url(#SVGID_1_);}
	.st3{fill:url(#SVGID_00000111179488668782560180000015459656152801673902_);}
	.st4{fill:#00FFFF;}
</style>
<g>
	<path class="st4" d="M25.5,64.8c-1.2,0-2.1,0.9-2.1,2.1v14.1h-3.3c-1.2,0-2.1,0.9-2.1,2.1v43.2c0,1.2,0.9,2.1,2.1,2.1h10.8
		c1.2,0,2.1-0.9,2.1-2.1v-8.7h60.6v8.7c0,1.2,0.9,2.1,2.1,2.1h10.8c1.2,0,2.1-0.9,2.1-2.1V83c0-1.2-0.9-2.1-2.1-2.1h-3.3V66.8
		c0-1.2-0.9-2.1-2.1-2.1H63.3H25.5z M93.5,102.5H65.4v-6.6h28.2V102.5z M33,95.9h28.2v6.6H33V95.9z M27.6,68.9h33.6v22.8H33V83
		c0-1.2-0.9-2.1-2.1-2.1h-3.3V68.9z M28.8,124.1h-6.6v-39h6.6v6.6v10.8v4.2v10.8V124.1z M33,113.3v-6.6h28.2h4.2h28.2v6.6H33z
		 M104.3,124.1h-6.6v-6.6v-10.8v-4.2V91.7v-6.6h6.6V124.1z M98.9,80.9h-3.3c-1.2,0-2.1,0.9-2.1,2.1v8.7H65.4V68.9h33.6V80.9z"/>
	<path class="st4" d="M111.8,52.8h8.7v66h-3.3c-1.2,0-2.1,0.9-2.1,2.1v5.4c0,1.2,0.9,2.1,2.1,2.1h16.2c1.2,0,2.1-0.9,2.1-2.1v-5.4
		c0-1.2-0.9-2.1-2.1-2.1h-3.3v-66h8.7c1.2,0,2.1-0.9,2.1-2.1v-27c0-1.2-0.9-2.1-2.1-2.1h-27c-1.2,0-2.1,0.9-2.1,2.1v27
		C109.7,51.8,110.7,52.8,111.8,52.8z M131.3,124.1h-12v-1.2h3.3h5.4h3.3V124.1z M125.9,118.7h-1.2v-66h1.2V118.7z M113.9,25.8h22.8
		v22.8H128h-5.4h-8.7V25.8z"/>
	<path class="st4" d="M11.8,62c0.2,0.9,1.1,1.6,2,1.6s1.8-0.6,2-1.6l2.2-8l8-2.2c0.9-0.2,1.6-1.1,1.6-2s-0.6-1.8-1.6-2l-8-2.2
		l-2.2-8c-0.2-0.9-1.1-1.6-2-1.6s-1.8,0.6-2,1.6l-2.2,8l-8,2.2C0.6,48,0,48.8,0,49.8s0.6,1.8,1.6,2l8,2.2L11.8,62z M11.9,49.3
		c0.7-0.2,1.3-0.8,1.5-1.5l0.5-1.7l0.5,1.7c0.2,0.7,0.8,1.3,1.5,1.5l1.7,0.5l-1.7,0.5c-0.7,0.2-1.3,0.8-1.5,1.5l-0.5,1.7l-0.5-1.7
		c-0.2-0.7-0.8-1.3-1.5-1.5l-1.7-0.5L11.9,49.3z"/>
	<path class="st4" d="M33.9,21.2l12.3,3.3l3.3,12.3c0.2,0.9,1.1,1.6,2,1.6s1.8-0.6,2-1.6l3.3-12.3l12.3-3.3c0.9-0.2,1.6-1.1,1.6-2
		s-0.6-1.8-1.6-2l-12.3-3.3L53.6,1.6c-0.2-0.9-1.1-1.6-2-1.6s-1.8,0.6-2,1.6l-3.3,12.3l-12.3,3.3c-0.9,0.2-1.6,1.1-1.6,2
		S33,21,33.9,21.2z M48.5,17.6c0.7-0.2,1.3-0.8,1.5-1.5l1.6-5.9l1.6,5.9c0.2,0.7,0.8,1.3,1.5,1.5l5.9,1.6l-5.9,1.6
		c-0.7,0.2-1.3,0.8-1.5,1.5l-1.6,5.9L50,22.3c-0.2-0.7-0.8-1.3-1.5-1.5l-5.9-1.6L48.5,17.6z"/>
	<path class="st4" d="M73.5,46.7l6.9,1.8l1.8,6.9c0.2,0.9,1.1,1.6,2,1.6s1.8-0.6,2-1.6l1.8-6.9l6.9-1.8c0.9-0.2,1.6-1.1,1.6-2
		s-0.6-1.8-1.6-2l-6.9-1.8l-1.8-6.9c-0.2-0.9-1.1-1.6-2-1.6s-1.8,0.6-2,1.6l-1.8,6.9l-6.9,1.8c-0.9,0.2-1.6,1.1-1.6,2
		S72.6,46.4,73.5,46.7z M82.6,44.5c0.7-0.2,1.3-0.8,1.5-1.5l0.1-0.5l0.1,0.5c0.2,0.7,0.8,1.3,1.5,1.5l0.5,0.1l-0.5,0.1
		c-0.7,0.2-1.3,0.8-1.5,1.5l-0.1,0.5l-0.1-0.5c-0.2-0.7-0.8-1.3-1.5-1.5l-0.5-0.1L82.6,44.5z"/>
	<path class="st4" d="M44.4,85.1c2.6,0,4.8-2.2,4.8-4.8c0-2.6-2.2-4.8-4.8-4.8s-4.8,2.2-4.8,4.8C39.6,83,41.7,85.1,44.4,85.1z
		 M44.4,79.7c0.3,0,0.6,0.3,0.6,0.6c0,0.3-0.3,0.6-0.6,0.6s-0.6-0.3-0.6-0.6C43.8,80,44,79.7,44.4,79.7z"/>
	<path class="st4" d="M82.1,85.1c2.6,0,4.8-2.2,4.8-4.8c0-2.6-2.2-4.8-4.8-4.8s-4.8,2.2-4.8,4.8C77.3,83,79.5,85.1,82.1,85.1z
		 M82.1,79.7c0.3,0,0.6,0.3,0.6,0.6c0,0.3-0.3,0.6-0.6,0.6s-0.6-0.3-0.6-0.6C81.5,80,81.8,79.7,82.1,79.7z"/>
</g>
</svg>
